<svg width="167" height="101" viewBox="0 0 167 101" fill="none" xmlns="http://www.w3.org/2000/svg">
<path d="M48.5434 45.3834C40.7197 46.3189 37.4314 46.1771 35.022 56.0986L27.7368 86.5715C27.1982 88.6975 26.9431 90.2849 26.9431 91.6172C26.9431 96.3795 31.3085 96.5212 37.148 97.1732C37.6866 97.3149 37.7999 97.7118 37.7999 98.3638C37.7999 99.5543 37.148 100.887 36.3542 100.887C30.7983 100.887 24.9588 100.093 18.6091 100.093C12.2594 100.093 6.95853 100.887 1.40254 100.887C1.00568 100.887 0.750549 100.745 0.750549 99.6961C0.750549 98.5055 1.40252 97.3149 2.33797 97.1732C10.1617 96.2378 13.45 96.5212 15.8595 86.5715L23.1446 56.0986C23.6832 53.9725 23.9383 52.2434 23.9383 51.0528C23.9383 46.1488 19.5729 46.1488 13.7334 45.3551C13.1948 45.3551 13.0814 44.8165 13.0814 44.3062C13.0814 43.1157 13.7334 41.67 14.5271 41.67C20.0831 41.67 25.9226 42.4637 32.2723 42.4637C38.622 42.4637 43.9229 41.67 49.4789 41.67C49.8757 41.67 50.1308 41.9251 50.1308 43.0023C50.1308 44.0795 49.4789 45.3834 48.5434 45.3834Z" fill="#72CAC3"/>
<path d="M64.4177 90.2849H84.9408C90.4968 90.2849 91.9709 88.9526 96.0528 83.9352C96.4497 83.5384 96.8465 83.2832 97.4985 83.2832C98.8308 83.2832 99.6245 84.0769 99.2276 84.8707C96.9882 89.2361 94.3236 95.3307 92.3394 101.028C89.3062 100.376 83.0699 100.093 71.0225 100.093C60.3074 100.093 51.0379 100.235 47.8347 100.887C47.1828 101.028 46.7859 100.632 46.7859 99.6961C46.7859 99.441 46.9276 99.0441 47.1828 98.9024C65.5799 84.7289 88.1157 69.62 88.1157 57.1757C88.1157 53.2072 86.2731 48.4449 80.0368 48.4449C74.4808 48.4449 68.6414 52.5552 64.4177 56.7789C64.0208 57.1757 63.4822 57.3175 63.0854 57.3175C62.0365 57.3175 60.9593 56.1269 60.9593 55.4749C60.9593 55.2198 61.1011 54.9363 61.2145 54.6812C68.1028 46.2055 76.4367 39.7141 86.3865 39.7141C95.004 39.7141 101.099 45.9504 101.099 52.3001C101.099 64.8861 83.6085 76.3949 64.4177 90.3133V90.2849Z" fill="#72CAC3"/>
<path d="M133.499 27.1847L125.704 26.9579L118.447 48.048C118.05 49.2953 117.682 50.5993 117.682 51.5347C117.682 52.3001 117.908 52.782 118.532 52.782C121.31 52.782 127.348 45.9787 128.113 45.9787C128.964 45.9787 129.502 46.8291 129.502 47.2827C129.502 48.1331 119.552 57.7143 114.847 57.7143C111.899 57.7143 110.595 56.0985 110.595 53.3772C110.595 51.9882 110.907 50.4292 111.53 48.6717L118.929 27.043L112.976 27.1847C112.352 27.1847 112.211 26.6461 112.211 25.9375C112.211 24.8603 113.146 23.7831 113.741 23.7831H120.006L122.869 15.4491C123.181 14.5987 125.42 14.1451 126.724 14.1451C127.971 14.1451 129.956 14.5987 129.672 15.4491L126.809 23.7831H134.236C134.945 23.7831 135.087 24.3217 135.087 25.0303C135.087 26.1075 134.151 27.1847 133.556 27.1847H133.499Z" fill="#72CAC3"/>
<path d="M148.098 57.686C146.255 57.686 143.704 56.5238 143.704 54.0576C143.704 51.9599 145.235 50.5142 147.474 50.5142C150.025 50.5142 150.706 53.2072 151.868 53.2072C154.249 53.2072 159.578 43.2574 159.578 31.21C159.578 28.5737 158.586 26.8729 156.885 26.8729C152.803 26.8729 142.513 36.5959 137.127 55.4466C136.901 56.297 134.803 56.7505 133.641 56.7505C132.564 56.7505 130.693 56.297 131.005 55.4466L144.668 11.9057C145.206 10.29 145.376 9.26947 145.376 8.41906C145.376 7.34188 144.214 6.80329 141.975 6.57651C141.578 6.49147 141.266 6.12296 141.266 5.58437C141.266 5.04578 141.408 4.64893 141.805 4.64893C145.206 4.02529 150.621 1.95597 152.775 0.566972C153.087 0.340197 153.54 0.0283813 154.079 0.0283813C154.532 0.0283813 154.844 0.425238 154.844 0.878788C154.844 1.41738 154.759 2.04101 154.447 2.89142L144.498 34.4699C148.835 27.8367 154.221 22.0256 160.854 22.0256C164.029 22.0256 166.863 24.9736 166.863 29.5942C166.863 43.4842 153.966 57.7143 148.013 57.7143L148.098 57.686Z" fill="#72CAC3"/>
<path d="M145.575 76.9052C136.646 76.9052 126.781 71.5759 118.787 71.5759C113.628 71.5759 112.806 73.4185 111.7 73.4185C111.048 73.4185 110.68 72.9649 110.68 72.2279C110.68 70.4704 115.272 67.2672 122.642 67.2672C131.572 67.2672 141.436 72.5964 149.43 72.5964C154.589 72.5964 155.411 70.7539 156.517 70.7539C157.169 70.7539 157.537 71.2074 157.537 71.9444C157.537 73.702 152.945 76.9052 145.575 76.9052Z" fill="#72CAC3"/>
</svg>
