<svg width="1728" height="83" viewBox="0 0 1728 83" fill="none" xmlns="http://www.w3.org/2000/svg">
<path d="M-35.7402 0.0477811C-17.4055 -0.716166 -17.2145 6.92331 1.12023 6.92331C19.455 6.92331 19.5027 0.0477811 37.8852 0.0477811C56.2677 0.0477811 56.2677 6.92331 74.6024 6.92331C92.9371 6.92331 92.9371 0.0477811 111.32 0.0477811C129.702 0.0477811 129.702 6.92331 148.037 6.92331C166.372 6.92331 166.419 0.0477811 184.802 0.0477811C203.184 0.0477811 203.184 6.92331 221.519 6.92331C239.854 6.92331 239.854 0.0477811 258.236 0.0477811C276.619 0.0477811 276.619 6.92331 294.953 6.92331C313.288 6.92331 313.336 0.0477811 331.718 0.0477811C350.101 0.0477811 350.101 6.92331 368.436 6.92331C386.77 6.92331 386.818 0.0477811 405.153 0.0477811C423.488 0.0477811 423.535 6.92331 441.87 6.92331C460.205 6.92331 460.252 0.0477811 478.635 0.0477811C497.017 0.0477811 497.017 6.92331 515.352 6.92331C533.687 6.92331 533.735 0.0477811 552.117 0.0477811C570.5 0.0477811 570.5 6.92331 588.834 6.92331C607.169 6.92331 607.217 0.0477811 625.599 0.0477811C643.982 0.0477811 643.982 6.92331 662.317 6.92331C680.651 6.92331 680.699 0.0477811 699.034 0.0477811C717.369 0.0477811 717.416 6.92331 735.751 6.92331C754.086 6.92331 754.181 0.0477811 772.516 0.0477811C790.851 0.0477811 790.898 6.92331 809.233 6.92331C827.568 6.92331 827.616 0.0477811 845.998 0.0477811C864.381 0.0477811 864.333 6.92331 882.715 6.92331C901.098 6.92331 901.05 0.0477811 919.433 0.0477811C937.815 0.0477811 937.815 6.92331 956.15 6.92331C974.484 6.92331 974.532 0.0477811 992.867 0.0477811C1011.2 0.0477811 1011.25 6.92331 1029.58 6.92331C1047.92 6.92331 1047.97 0.0477811 1066.35 0.0477811C1084.73 0.0477811 1084.73 6.92331 1103.07 6.92331C1121.4 6.92331 1121.45 0.0477811 1139.83 0.0477811C1158.21 0.0477811 1158.21 6.92331 1176.6 6.92331C1194.98 6.92331 1194.93 0.0477811 1213.31 0.0477811C1231.7 0.0477811 1231.7 6.92331 1250.08 6.92331C1268.46 6.92331 1268.41 0.0477811 1286.8 0.0477811C1305.18 0.0477811 1305.18 6.92331 1323.56 6.92331C1341.94 6.92331 1341.9 0.0477811 1360.28 0.0477811C1378.66 0.0477811 1378.66 6.92331 1397.04 6.92331C1415.43 6.92331 1415.43 0.0477811 1433.81 0.0477811C1452.19 0.0477811 1452.19 6.92331 1470.52 6.92331C1488.86 6.92331 1488.91 0.0477811 1507.29 0.0477811C1525.67 0.0477811 1525.67 6.92331 1544.05 6.92331C1562.44 6.92331 1562.39 0.0477811 1580.77 0.0477811C1599.15 0.0477811 1599.15 6.92331 1617.54 6.92331C1635.92 6.92331 1635.92 0.0477811 1654.3 0.0477811C1672.68 0.0477811 1672.68 6.92331 1691.07 6.92331C1709.45 6.92331 1709.45 0.0477811 1727.83 0.0477811C1746.21 0.0477811 1746.12 6.15936 1764.45 6.92331C1765.22 6.92331 1768.03 4.24949 1768.03 5.01344C1768.03 5.77739 1761.16 5.77739 1761.16 6.54133C1761.16 7.30528 1768.03 7.30528 1768.03 8.06923C1768.03 8.83317 1761.16 8.83317 1761.16 9.59712C1761.16 10.3611 1768.03 10.3611 1768.03 11.125C1768.03 11.889 1761.16 11.889 1761.16 12.6529C1761.16 13.4169 1768.03 13.4169 1768.03 14.1808C1768.03 14.9448 1761.16 14.9448 1761.16 15.7087C1761.16 16.4726 1768.03 16.4726 1768.03 17.2366C1768.03 18.0005 1761.16 18.0005 1761.16 18.7645C1761.16 19.5284 1768.03 19.5284 1768.03 20.2924C1768.03 21.0563 1761.16 21.0563 1761.16 21.8203C1761.16 22.5842 1768.03 22.5842 1768.03 23.3482C1768.03 24.1121 1761.16 24.1121 1761.16 24.8761C1761.16 25.64 1768.03 25.64 1768.03 26.404C1768.03 27.1679 1761.16 27.1679 1761.16 27.9319C1761.16 28.6958 1768.03 28.6958 1768.03 29.4597C1768.03 30.2237 1761.16 30.2237 1761.16 30.9876C1761.16 31.7516 1768.03 31.7516 1768.03 32.5155C1768.03 33.2795 1761.16 33.2795 1761.16 34.0434C1761.16 34.8074 1768.03 34.8074 1768.03 35.5713C1768.03 36.3353 1761.16 36.3353 1761.16 37.0992C1761.16 37.8632 1768.03 37.8632 1768.03 38.6271C1768.03 39.3911 1761.16 39.3911 1761.16 40.155C1761.16 40.919 1768.03 40.919 1768.03 41.6829C1768.03 42.4468 1761.16 42.4469 1761.16 43.2108C1761.16 43.9747 1768.03 43.9747 1768.03 44.7387C1768.03 45.5026 1761.16 45.5026 1761.16 46.2666C1761.16 47.0305 1768.03 47.0305 1768.03 47.7945C1768.03 48.5584 1761.16 48.5584 1761.16 49.3224C1761.16 50.0863 1768.03 50.0863 1768.03 50.8503C1768.03 51.6142 1761.16 51.6142 1761.16 52.3782C1761.16 53.1421 1768.03 53.1421 1768.03 53.9061C1768.03 54.67 1761.16 54.67 1761.16 55.434C1761.16 56.1979 1768.03 56.1979 1768.03 56.9619C1768.03 57.7258 1761.16 57.7258 1761.16 58.4897C1761.16 59.2537 1768.03 59.2537 1768.03 60.0176C1768.03 60.7816 1761.16 60.7816 1761.16 61.5455C1761.16 62.3095 1768.03 62.3095 1768.03 63.0734C1768.03 63.8374 1761.16 63.8374 1761.16 64.6013C1761.16 65.3653 1768.03 65.3653 1768.03 66.1292C1768.03 66.8932 1761.16 66.8932 1761.16 67.6571C1761.16 68.4211 1768.03 68.4211 1768.03 69.185C1768.03 69.949 1761.16 69.949 1761.16 70.7606C1761.16 71.5723 1768.03 71.5246 1768.03 72.2885C1768.03 73.0525 1761.16 73.0525 1761.16 73.8164C1761.16 74.5804 1768.03 74.5804 1768.03 75.3921C1768.03 76.2038 1761.16 76.156 1761.16 76.9677C1761.16 77.7794 1765.55 81.9334 1764.74 81.9811C1746.41 82.7451 1746.21 75.1056 1727.88 75.1056C1709.54 75.1056 1709.5 81.9811 1691.16 81.9811C1672.83 81.9811 1672.78 75.1056 1654.45 75.1056C1636.11 75.1056 1636.06 81.9811 1617.73 81.9811C1599.39 81.9811 1599.35 75.1056 1581.01 75.1056C1562.68 75.1056 1562.63 81.9811 1544.29 81.9811C1525.96 81.9811 1525.91 75.1056 1507.58 75.1056C1489.24 75.1056 1489.19 81.9811 1470.86 81.9811C1452.52 81.9811 1452.48 75.1056 1434.14 75.1056C1415.81 75.1056 1415.76 81.9811 1397.42 81.9811C1379.09 81.9811 1379.04 75.1056 1360.71 75.1056C1342.37 75.1056 1342.33 81.9811 1323.99 81.9811C1305.66 81.9811 1305.61 75.1056 1287.27 75.1056C1268.94 75.1056 1268.89 81.9811 1250.56 81.9811C1232.22 81.9811 1232.17 75.1056 1213.84 75.1056C1195.5 75.1056 1195.46 81.9811 1177.12 81.9811C1158.79 81.9811 1158.74 75.1056 1140.4 75.1056C1122.07 75.1056 1122.02 81.9811 1103.69 81.9811C1085.35 81.9811 1085.3 75.1056 1066.97 75.1056C1048.64 75.1056 1048.59 81.9811 1030.2 81.9811C1011.82 81.9811 1011.82 75.1056 993.488 75.1056C975.153 75.1056 975.105 81.9811 956.723 81.9811C938.34 81.9811 938.34 75.1056 920.005 75.1056C901.671 75.1056 901.623 81.9811 883.288 81.9811C864.954 81.9811 864.954 75.1056 846.571 75.1056C828.189 75.1056 828.189 81.9811 809.854 81.9811C791.519 81.9811 791.471 75.1056 773.137 75.1056C754.802 75.1056 754.754 81.9811 736.419 81.9811C718.085 81.9811 718.037 75.1056 699.702 75.1056C681.367 75.1056 681.32 81.9811 662.985 81.9811C644.65 81.9811 644.603 75.1056 626.268 75.1056C607.933 75.1056 607.885 81.9811 589.551 81.9811C571.216 81.9811 571.168 75.1056 552.786 75.1056C534.403 75.1056 534.403 81.9811 516.068 81.9811C497.734 81.9811 497.686 75.1056 479.303 75.1056C460.921 75.1056 460.921 81.9811 442.538 81.9811C424.156 81.9811 424.156 75.1056 405.774 75.1056C387.391 75.1056 387.391 81.9811 369.009 81.9811C350.626 81.9811 350.626 75.1056 332.244 75.1056C313.861 75.1056 313.861 81.9811 295.479 81.9811C277.096 81.9811 277.096 75.1056 258.761 75.1056C240.427 75.1056 240.379 81.9811 221.996 81.9811C203.614 81.9811 203.614 75.1056 185.232 75.1056C166.849 75.1056 166.849 81.9811 148.467 81.9811C130.084 81.9811 130.084 75.1056 111.702 75.1056C93.3191 75.1056 93.3191 81.9811 74.9366 81.9811C56.5541 81.9811 56.5541 75.1056 38.1717 75.1056C19.7892 75.1056 19.7892 81.9811 1.40671 81.9811C-16.9758 81.9811 -16.8803 75.8695 -35.215 75.1056C-36.2177 75.1056 -39.0347 77.8272 -39.0347 77.0632C-39.0347 76.2993 -32.1592 76.2993 -32.1592 75.5353C-32.1592 74.7714 -39.0347 74.7714 -39.0347 74.0074C-39.0347 73.2435 -32.1592 73.2435 -32.1592 72.4795C-32.1592 71.7156 -39.0347 71.7156 -39.0347 70.9516C-39.0347 70.1877 -32.1592 70.1877 -32.1592 69.4237C-32.1592 68.6598 -39.0347 68.7075 -39.0347 67.9436C-39.0347 67.1796 -32.1592 67.1796 -32.1592 66.4157C-32.1592 65.6517 -39.0347 65.604 -39.0347 64.8401C-39.0347 64.0761 -32.1592 64.0761 -32.1592 63.3122C-32.1592 62.5482 -39.0347 62.5482 -39.0347 61.7843C-39.0347 61.0203 -32.1592 61.0203 -32.1592 60.2564C-32.1592 59.4924 -39.0347 59.4924 -39.0347 58.7762C-39.0347 58.06 -32.1592 58.0123 -32.1592 57.2483C-32.1592 56.4844 -39.0347 56.4844 -39.0347 55.7204C-39.0347 54.9565 -32.1592 54.9565 -32.1592 54.1925C-32.1592 53.4286 -39.0347 53.4763 -39.0347 52.7124C-39.0347 51.9484 -32.1592 51.9484 -32.1592 51.1845C-32.1592 50.4206 -39.0347 50.4206 -39.0347 49.6566C-39.0347 48.8927 -32.1592 48.8927 -32.1592 48.1287C-32.1592 47.3648 -39.0347 47.4125 -39.0347 46.6486C-39.0347 45.8846 -32.1592 45.8846 -32.1592 45.1207C-32.1592 44.3567 -39.0347 44.3567 -39.0347 43.5928C-39.0347 42.8288 -32.1592 42.8288 -32.1592 42.0649C-32.1592 41.3009 -39.0347 41.3009 -39.0347 40.537C-39.0347 39.773 -32.1592 39.773 -32.1592 39.0091C-32.1592 38.2451 -39.0347 38.2451 -39.0347 37.4812C-39.0347 36.7172 -32.1592 36.7172 -32.1592 35.9533C-32.1592 35.1894 -39.0347 35.1416 -39.0347 34.3777C-39.0347 33.6137 -32.1592 33.6137 -32.1592 32.8498C-32.1592 32.0858 -39.0347 32.0858 -39.0347 31.3219C-39.0347 30.5579 -32.1592 30.5579 -32.1592 29.794C-32.1592 29.03 -39.0347 29.03 -39.0347 28.2661C-39.0347 27.5021 -32.1592 27.5021 -32.1592 26.7382C-32.1592 25.9742 -39.0347 25.9742 -39.0347 25.1625C-39.0347 24.3509 -32.1592 24.3986 -32.1592 23.6346C-32.1592 22.8707 -39.0347 22.8707 -39.0347 22.1068C-39.0347 21.3428 -32.1592 21.3428 -32.1592 20.5789C-32.1592 19.8149 -39.0347 19.7672 -39.0347 19.0032C-39.0347 18.2393 -32.1592 18.2393 -32.1592 17.4753C-32.1592 16.7114 -39.0347 16.7114 -39.0347 15.9474C-39.0347 15.1835 -32.1592 15.1835 -32.1592 14.4195C-32.1592 13.6556 -39.0347 13.6078 -39.0347 12.8439C-39.0347 12.08 -32.1592 12.0799 -32.1592 11.2683C-32.1592 10.4566 -39.0347 10.5043 -39.0347 9.74036C-39.0347 8.97641 -32.1592 8.97641 -32.1592 8.21247C-32.1592 7.44852 -39.0347 7.40077 -39.0347 6.63683C-39.0347 5.87288 -32.0637 5.34766 -32.207 4.58372C-32.5412 2.0054 -36.5519 0.0955278 -35.7402 0.0477811Z" fill="#72CAC3"/>
</svg>
